<svg viewBox="0 0 78 98" xmlns="http://www.w3.org/2000/svg"><path d="M3.125 1.96L.021 59.232a1.98 1.98 0 0 0 .123.798C2.16 65.477 7.22 70.944 15.325 76.43c2.94 1.99 6.688 2.471 11 4.854 3.022 1.669 7.158 5.204 13.408 8.645 2.897 1.595 8.09 4.08 15.58 7.454a2 2 0 0 0 2.35-.535c4.814-5.714 8.406-10.5 10.775-14.36 2.446-3.986 5.473-10.057 9.079-18.21a1.993 1.993 0 0 0 .009-1.597l-6.023-14a2 2 0 0 0-.96-1.007L54.857 40.02a1.998 1.998 0 0 1-1.056-2.31c1.98-7.406-.325-13.117-6.915-17.133-3.831-2.334-13.502-2.335-21.747-6.58C21.01 11.874 14.76 7.382 6.386.523a1.997 1.997 0 0 0-3.26 1.439z" fill="#EBE7E7" fill-rule="evenodd"/></svg>
