<?xml version="1.0" standalone="no"?>
<!DOCTYPE svg PUBLIC "-//W3C//DTD SVG 20010904//EN"
 "http://www.w3.org/TR/2001/REC-SVG-20010904/DTD/svg10.dtd">
<svg version="1.0" xmlns="http://www.w3.org/2000/svg"
 width="1600.000000pt" height="1600.000000pt" viewBox="0 0 1600.000000 1600.000000"
 preserveAspectRatio="xMidYMid meet">
<metadata>
Created by potrace 1.14, written by Peter Selinger 2001-2017
</metadata>
<g transform="translate(0.000000,1600.000000) scale(0.100000,-0.100000)"
fill="#000000" stroke="none">
<path d="M11155 15911 c-405 -61 -1157 -172 -1975 -291 -261 -38 -691 -101
-955 -139 -264 -39 -501 -78 -527 -87 -80 -27 -136 -87 -210 -226 -89 -167
-190 -357 -453 -853 -122 -231 -260 -490 -305 -575 -45 -85 -144 -272 -220
-415 -76 -143 -175 -330 -220 -415 -45 -85 -123 -231 -173 -325 -89 -169 -248
-468 -427 -805 -51 -96 -185 -348 -297 -560 -218 -413 -244 -449 -338 -495
-33 -16 -90 -29 -170 -40 -538 -71 -628 -86 -683 -113 -30 -14 -70 -45 -89
-67 -19 -22 -93 -143 -165 -270 -71 -126 -200 -354 -285 -505 -507 -898 -467
-811 -458 -999 6 -100 28 -923 75 -2691 17 -633 68 -2488 143 -5215 l13 -470
26 -56 c31 -69 88 -127 154 -160 40 -20 64 -24 134 -24 80 0 110 8 510 128
234 71 569 171 745 223 176 53 426 127 555 166 129 38 341 101 470 140 129 38
339 100 465 138 127 38 376 112 555 165 545 162 529 156 591 222 20 21 108
130 195 243 87 113 288 374 448 580 159 206 364 472 456 590 198 257 497 643
1500 1940 414 536 827 1070 916 1185 89 116 468 606 843 1090 374 484 691 900
703 925 l23 45 0 3030 0 3030 -26 55 c-14 30 -115 244 -224 475 -108 231 -233
497 -277 590 -44 94 -114 242 -156 330 -224 477 -227 482 -330 528 -95 43
-130 41 -557 -22z"/>
</g>
</svg>
